<?xml version="1.0" encoding="UTF-8"?>
<svg width="71px" height="71px" viewBox="0 0 71 71" version="1.1" xmlns="http://www.w3.org/2000/svg" xmlns:xlink="http://www.w3.org/1999/xlink">
    <title>P</title>
    <defs>
        <rect id="path-1" x="0" y="0" width="71" height="71"></rect>
    </defs>
    <g id="Page-1" stroke="none" stroke-width="1" fill="none" fill-rule="evenodd">
        <g id="Artboard">
            <rect fill="#E02020" x="0" y="0" width="71" height="71"></rect>
            <g id="P-2">
                <g id="P">
                    <mask id="mask-2" fill="white">
                        <use xlink:href="#path-1"></use>
                    </mask>
                    <use id="Mask" fill="#000000" xlink:href="#path-1"></use>
                    <path d="M31.6789773,50 L31.678,40.569 L36.8494318,40.5681818 C38.9352904,40.5681818 40.7344907,40.2093434 42.2470328,39.4916667 L42.5667614,39.3323864 C44.1434659,38.5085227 45.3484848,37.3579545 46.1818182,35.8806818 C47.0151515,34.4034091 47.4318182,32.6988636 47.4318182,30.7670455 C47.4318182,28.8352273 47.0222538,27.1283144 46.203125,25.6463068 C45.3839962,24.1642992 44.1979167,23.0042614 42.6448864,22.1661932 C41.0918561,21.328125 39.2121212,20.9090909 37.0056818,20.9090909 L37.0056818,20.9090909 L25.5284091,20.9090909 L25.5284091,50 L31.6789773,50 Z M31.6789773,25.9375 L35.8267045,25.9375 C37.0198864,25.9375 38.0047348,26.1387311 38.78125,26.5411932 C39.5577652,26.9436553 40.1377841,27.5071023 40.5213068,28.2315341 C40.9048295,28.9559659 41.0965909,29.8011364 41.0965909,30.7670455 C41.0965909,31.7234848 40.9048295,32.5686553 40.5213068,33.3025568 C40.1377841,34.0364583 39.5601326,34.609375 38.7883523,35.0213068 C38.016572,35.4332386 37.0388258,35.6392045 35.8551136,35.6392045 L35.8551136,35.6392045 L31.678,35.64 L31.6789773,25.9375 Z" fill="#FFFFFF" fill-rule="nonzero" mask="url(#mask-2)"></path>
                    <polygon id="´" fill="#FFFFFF" fill-rule="nonzero" mask="url(#mask-2)" points="37.8607955 18.3693182 42.1931818 11.90625 36.5965909 11.90625 33.5852273 18.3693182"></polygon>
                </g>
            </g>
        </g>
    </g>
</svg>